<svg xmlns="http://www.w3.org/2000/svg" width="463" height="203.389" viewBox="0 0 463 203.389">
  <g id="Layer_2" data-name="Layer 2">
    <g id="Layer_1-2" data-name="Layer 1">
      <path d="M4.146,69.1l116.1,4.147s-5.529,38.7,9.674,48.373c0,0-13.82-46.991,12.439-66.34L197.639,9.675,247.394,0h81.543s4.147,22.113-30.406,35.934H266.743s-17.967,11.057-29.024,11.057c0,0-6.91,9.675,8.293,8.293,0,0,19.349-12.439,51.137-15.2l147.884-2.765s16.585,0,17.967,17.968c0,0,0,16.585-15.2,17.967L346.9,77.4S334.466,66.34,322.027,66.34h-23.5s-29.024-17.967-60.812,1.382c0,0-6.91,13.821-5.528,22.114,0,0-16.585-6.911-24.878,15.2,0,0,2.765,19.349-19.349,33.17,0,0-22.113,22.113,2.764,5.528,0,0,17.968-19.349,22.114-16.585,0,0,4.146,9.675,0,13.821s-6.911,13.821-1.382,17.967S254.3,199.021,254.3,199.021s1.383,5.528-9.674,4.146H165.851s-23.5-1.382-38.7-15.2L1.382,190.728,0,69.1Z"/>
      <path d="M243.248,77.4s2.764-16.585,42.845-8.293c0,0,38.7,5.529,60.811,15.2,0,0,24.878,37.317-19.349,35.935l-67.722-23.5S240.484,89.836,243.248,77.4Z"/>
      <path d="M322.027,124.388l-92.6-26.26s-19.349-1.382-15.2,22.114L299.913,161.7S345.522,167.233,322.027,124.388Z"/>
      <path d="M232.191,139.591l52.519,29.024s16.586,41.463-23.5,31.788l-44.227-45.609S210.078,131.3,232.191,139.591Z"/>
    </g>
  </g>
</svg>
