<?xml version="1.0" encoding="utf-8"?>
<!-- Generator: Adobe Illustrator 25.3.1, SVG Export Plug-In . SVG Version: 6.00 Build 0)  -->
<svg version="1.1" id="Layer_1" xmlns="http://www.w3.org/2000/svg" xmlns:xlink="http://www.w3.org/1999/xlink" x="0px" y="0px"
	 viewBox="0 0 28 28" style="enable-background:new 0 0 28 28;" xml:space="preserve">
<style type="text/css">
	.st0{fill:#EEF3FA;}
	.st1{fill:#B6CBEA;}
	.st2{fill:#DBE5F4;}
	.st3{fill:#F6C35B;}
	.st4{fill:#F1617B;}
	.st5{fill:#3AC2D8;}
	.st6{fill:#B7CCEA;}
	.st7{fill:#DAE5F5;}
</style>
<g>
	<path class="st0" d="M21.33,27.92c-5.25,0-10.49,0-15.74,0c0.04-0.05,0.09-0.05,0.15-0.06c0.72-0.13,1.32-0.84,1.32-1.58
		c0-7.56,0-15.12,0-22.68c0-0.86,0-1.71,0-2.57c0-0.35-0.04-0.7,0.27-0.96c0.07,0,0.14,0,0.22,0c0.1,0.1,0.22,0.05,0.34,0.05
		c4.93,0,9.87,0,14.8,0c0,0.64-0.01,1.28-0.01,1.93c-0.12-0.15-0.29-0.2-0.48-0.19c-0.9,0.01-1.81,0-2.71,0c-3.38,0-6.76,0-10.14,0
		C8.94,1.87,8.8,2.01,8.8,2.4c0,0.23,0,0.47,0,0.7c0,0.36,0.15,0.5,0.52,0.5c4.29,0,8.58,0,12.88,0c0.19,0,0.36-0.04,0.48-0.19
		c0,0.84,0.01,1.69,0.01,2.53c-0.15-0.13-0.32-0.17-0.52-0.17c-1.64,0.01-3.29,0-4.93,0c-0.07,0-0.15-0.01-0.22,0.01
		c-0.22,0.06-0.39,0.19-0.39,0.42c0,0.23,0.17,0.37,0.39,0.43c0.06,0.02,0.13,0.01,0.19,0.01c1.65,0,3.31,0,4.96,0
		c0.2,0,0.37-0.05,0.53-0.17c0,0.4,0,0.8,0,1.2c-0.15-0.13-0.32-0.17-0.52-0.17c-1.64,0.01-3.29,0-4.93,0
		c-0.07,0-0.15-0.01-0.22,0.01c-0.22,0.06-0.39,0.19-0.39,0.42c0,0.23,0.17,0.37,0.39,0.43c0.06,0.02,0.13,0.01,0.19,0.01
		c1.65,0,3.31,0,4.96,0c0.2,0,0.37-0.05,0.53-0.17c0,0.4,0,0.8,0,1.2c-0.15-0.13-0.32-0.17-0.52-0.17c-1.64,0.01-3.29,0-4.93,0
		c-0.07,0-0.15-0.01-0.22,0.01c-0.22,0.06-0.39,0.19-0.39,0.42c0,0.23,0.17,0.37,0.39,0.43c0.06,0.02,0.13,0.01,0.19,0.01
		c1.65,0,3.31,0,4.96,0c0.2,0,0.37-0.05,0.53-0.17c0,0.4,0,0.8,0,1.2c-0.15-0.13-0.32-0.17-0.52-0.17c-1.64,0.01-3.29,0-4.93,0
		c-0.07,0-0.15-0.01-0.22,0.01c-0.22,0.06-0.39,0.19-0.39,0.42c0,0.23,0.17,0.37,0.39,0.43c0.06,0.02,0.13,0.01,0.19,0.01
		c1.65,0,3.31,0,4.96,0c0.2,0,0.37-0.05,0.53-0.17c0,0.4,0,0.8,0,1.2c-0.15-0.13-0.32-0.17-0.52-0.17c-1.64,0.01-3.29,0-4.93,0
		c-0.07,0-0.15-0.01-0.22,0.01c-0.22,0.06-0.39,0.19-0.39,0.42c0,0.23,0.17,0.37,0.39,0.43c0.06,0.02,0.13,0.01,0.19,0.01
		c1.65,0,3.31,0,4.96,0c0.2,0,0.37-0.05,0.53-0.17c0,0.4,0,0.8,0,1.2c-0.15-0.13-0.32-0.17-0.52-0.17c-1.64,0.01-3.29,0-4.93,0
		c-0.07,0-0.15-0.01-0.22,0.01c-0.22,0.06-0.39,0.19-0.39,0.42c0,0.23,0.17,0.37,0.39,0.43c0.06,0.02,0.13,0.01,0.19,0.01
		c1.65,0,3.31,0,4.96,0c0.2,0,0.37-0.05,0.53-0.17c0,0.4,0,0.8,0,1.2c-0.15-0.13-0.32-0.17-0.52-0.17c-1.64,0.01-3.29,0-4.93,0
		c-0.07,0-0.15-0.01-0.22,0.01c-0.22,0.06-0.39,0.19-0.39,0.42c0,0.23,0.17,0.37,0.39,0.43c0.06,0.02,0.13,0.01,0.19,0.01
		c1.65,0,3.31,0,4.96,0c0.2,0,0.37-0.05,0.53-0.17c0,0.26,0.01,0.52,0,0.78c-0.01,0.28,0.06,0.57-0.04,0.85
		c-0.12-0.13-0.27-0.17-0.44-0.17c-1.69,0-3.38,0-5.07,0c-0.37,0-0.51,0.14-0.51,0.5c0,1.98,0,3.96,0,5.94c0,0.37,0.14,0.5,0.51,0.5
		c1.69,0,3.38,0,5.07,0c0.17,0,0.32-0.03,0.44-0.17c0.1,0.35,0.03,0.71,0.04,1.07c0.02,0.47-0.18,0.85-0.48,1.19
		C21.96,27.67,21.62,27.75,21.33,27.92z M14.88,9.7c0-1,0-2.01,0-3.01c0-0.34-0.13-0.47-0.48-0.47c-1.7,0-3.4,0-5.1,0
		c-0.35,0-0.5,0.14-0.5,0.49c0,1.98,0,3.96,0,5.94c0,0.38,0.14,0.52,0.53,0.52c1.68,0,3.36,0,5.04,0c0.38,0,0.5-0.12,0.5-0.5
		C14.88,11.67,14.88,10.68,14.88,9.7z M11.86,15.33c0.82,0,1.64,0,2.47,0c0.38,0,0.55-0.14,0.55-0.44c0-0.29-0.17-0.42-0.53-0.42
		c-1.65,0-3.31,0-4.96,0c-0.33,0-0.59,0.2-0.58,0.44c0.01,0.23,0.26,0.42,0.57,0.42C10.2,15.33,11.03,15.33,11.86,15.33z
		 M11.86,16.2c-0.83,0-1.66,0-2.49,0c-0.31,0-0.56,0.19-0.57,0.42c-0.01,0.24,0.25,0.44,0.58,0.44c1.65,0,3.31,0,4.96,0
		c0.36,0,0.53-0.14,0.53-0.42c0-0.3-0.17-0.44-0.55-0.44C13.5,16.2,12.68,16.2,11.86,16.2z M11.83,18.8c0.84,0,1.68,0,2.52,0
		c0.35,0,0.52-0.15,0.52-0.44c0-0.28-0.17-0.43-0.51-0.43c-1.67,0-3.34,0-5.01,0c-0.3,0-0.56,0.21-0.55,0.44
		c0.01,0.23,0.26,0.43,0.57,0.43C10.19,18.8,11.01,18.8,11.83,18.8z M11.86,20.54c0.82,0,1.64,0,2.47,0c0.38,0,0.55-0.14,0.55-0.44
		c0-0.29-0.17-0.42-0.53-0.42c-1.65,0-3.31,0-4.96,0c-0.33,0-0.59,0.2-0.58,0.44c0.01,0.23,0.26,0.42,0.57,0.42
		C10.2,20.54,11.03,20.54,11.86,20.54z M11.86,22.27c0.82,0,1.64,0,2.47,0c0.38,0,0.55-0.14,0.55-0.44c0-0.29-0.17-0.42-0.53-0.42
		c-1.65,0-3.31,0-4.96,0c-0.33,0-0.59,0.2-0.58,0.44c0.01,0.23,0.26,0.42,0.57,0.42C10.2,22.27,11.03,22.27,11.86,22.27z
		 M11.83,24.01c0.83,0,1.66,0,2.49,0c0.38,0,0.55-0.14,0.55-0.44c0-0.29-0.17-0.42-0.53-0.43c-1.65,0-3.31,0-4.96,0
		c-0.33,0-0.59,0.2-0.58,0.44c0.01,0.24,0.26,0.43,0.59,0.43C10.2,24.01,11.02,24.01,11.83,24.01z M11.87,24.88
		c-0.32,0-0.63,0-0.95,0c-0.54,0-1.08,0-1.63,0c-0.26,0-0.5,0.22-0.5,0.44c0.01,0.21,0.24,0.41,0.49,0.42c0.04,0,0.07,0,0.11,0
		c1.64,0,3.29,0,4.93,0c0.38,0,0.55-0.14,0.55-0.44c0-0.29-0.17-0.42-0.53-0.42C13.51,24.88,12.69,24.88,11.87,24.88z"/>
	<path class="st1" d="M5.7,3.61c0.45,0,0.9,0,1.36,0c0,7.56,0,15.12,0,22.68c0,0.74-0.6,1.44-1.32,1.58c-0.05,0.01-0.11,0-0.15,0.06
		c-0.2,0-0.4,0-0.6,0c-0.45-0.17-0.88-0.36-1.15-0.8c-0.16-0.27-0.27-0.55-0.27-0.87c0-7.25,0-14.51,0-21.76
		c0-0.52,0.37-0.88,0.89-0.88c0.08,0,0.16,0,0.24,0.01C4.96,3.9,4.94,4.24,4.94,4.59c0,7.12,0,14.23,0,21.35c0,0.09,0,0.18,0,0.27
		c0.01,0.3,0.27,0.46,0.55,0.36c0.27-0.09,0.27-0.31,0.27-0.53c0-7.2,0-14.4,0-21.6C5.75,4.17,5.77,3.89,5.7,3.61z"/>
	<path class="st2" d="M22.68,0.14c0.43,0,0.87,0,1.3,0c0.28,0,0.43,0.16,0.43,0.43c0,0.67,0,1.34,0,2.01c0,7.83,0,15.66,0,23.49
		c0,0.99-0.46,1.57-1.43,1.81c-0.02,0-0.03,0.02-0.04,0.03c-0.54,0-1.09,0-1.63,0c0.29-0.17,0.63-0.24,0.87-0.51
		c0.3-0.34,0.5-0.72,0.48-1.19c-0.01-0.36,0.05-0.72-0.04-1.07c0.06-0.12,0.05-0.24,0.05-0.37c0-1.96,0-3.92,0-5.88
		c0-0.13,0-0.25-0.05-0.37c0.1-0.28,0.03-0.57,0.04-0.85c0.01-0.26,0-0.52,0-0.78c0.07-0.18,0.07-0.36,0-0.54c0-0.4,0-0.8,0-1.2
		c0.07-0.18,0.07-0.36,0-0.54c0-0.4,0-0.8,0-1.2c0.07-0.18,0.07-0.36,0-0.54c0-0.4,0-0.8,0-1.2c0.07-0.18,0.07-0.36,0-0.54
		c0-0.4,0-0.8,0-1.2c0.07-0.18,0.07-0.36,0-0.54c0-0.4,0-0.8,0-1.2c0.07-0.18,0.07-0.36,0-0.54c0-0.4,0-0.8,0-1.2
		c0.07-0.18,0.07-0.36,0-0.54c0-0.84-0.01-1.69-0.01-2.53c0.03-0.45,0.03-0.9,0-1.35C22.68,1.42,22.68,0.78,22.68,0.14z"/>
	<path class="st3" d="M22.64,18.53c0.06,0.12,0.05,0.24,0.05,0.37c0,1.96,0,3.92,0,5.88c0,0.13,0,0.25-0.05,0.37
		c-0.12,0.13-0.27,0.17-0.44,0.17c-1.69,0-3.38,0-5.07,0c-0.37,0-0.51-0.14-0.51-0.5c0-1.98,0-3.96,0-5.94c0-0.37,0.14-0.5,0.51-0.5
		c1.69,0,3.38,0,5.07,0C22.37,18.37,22.52,18.4,22.64,18.53z"/>
	<path class="st4" d="M14.88,9.7c0,0.99,0,1.97,0,2.96c0,0.38-0.12,0.5-0.5,0.5c-1.68,0-3.36,0-5.04,0c-0.39,0-0.53-0.13-0.53-0.52
		c0-1.98,0-3.96,0-5.94c0-0.35,0.15-0.49,0.5-0.49c1.7,0,3.4,0,5.1,0c0.34,0,0.48,0.13,0.48,0.47C14.88,7.69,14.88,8.69,14.88,9.7z"
		/>
	<path class="st5" d="M22.67,2.06c0.03,0.45,0.03,0.9,0,1.35c-0.12,0.15-0.29,0.19-0.48,0.19c-4.29,0-8.58,0-12.88,0
		c-0.37,0-0.51-0.14-0.52-0.5c0-0.23,0-0.47,0-0.7c0-0.4,0.14-0.53,0.54-0.53c3.38,0,6.76,0,10.14,0c0.9,0,1.81,0,2.71,0
		C22.39,1.87,22.55,1.91,22.67,2.06z"/>
	<path class="st6" d="M22.68,5.95c0.07,0.18,0.07,0.36,0,0.54c-0.16,0.12-0.33,0.17-0.53,0.17c-1.65,0-3.31,0-4.96,0
		c-0.06,0-0.13,0.01-0.19-0.01c-0.22-0.06-0.39-0.2-0.39-0.43c0-0.23,0.17-0.37,0.39-0.42c0.07-0.02,0.14-0.01,0.22-0.01
		c1.64,0,3.29,0,4.93,0C22.36,5.78,22.53,5.81,22.68,5.95z"/>
	<path class="st6" d="M22.68,7.68c0.07,0.18,0.07,0.36,0,0.54c-0.16,0.12-0.33,0.17-0.53,0.17c-1.65,0-3.31,0-4.96,0
		c-0.06,0-0.13,0.01-0.19-0.01c-0.22-0.06-0.39-0.2-0.39-0.43c0-0.23,0.17-0.37,0.39-0.42c0.07-0.02,0.14-0.01,0.22-0.01
		c1.64,0,3.29,0,4.93,0C22.36,7.51,22.53,7.55,22.68,7.68z"/>
	<path class="st6" d="M22.68,9.42c0.07,0.18,0.07,0.36,0,0.54c-0.16,0.12-0.33,0.17-0.53,0.17c-1.65,0-3.31,0-4.96,0
		c-0.06,0-0.13,0.01-0.19-0.01c-0.22-0.06-0.39-0.2-0.39-0.43c0-0.23,0.17-0.37,0.39-0.42c0.07-0.02,0.14-0.01,0.22-0.01
		c1.64,0,3.29,0,4.93,0C22.36,9.25,22.53,9.29,22.68,9.42z"/>
	<path class="st6" d="M22.68,11.15c0.07,0.18,0.07,0.36,0,0.54c-0.16,0.12-0.33,0.17-0.53,0.17c-1.65,0-3.31,0-4.96,0
		c-0.06,0-0.13,0.01-0.19-0.01c-0.22-0.06-0.39-0.2-0.39-0.43c0-0.23,0.17-0.37,0.39-0.42c0.07-0.02,0.14-0.01,0.22-0.01
		c1.64,0,3.29,0,4.93,0C22.36,10.99,22.53,11.02,22.68,11.15z"/>
	<path class="st6" d="M22.68,12.89c0.07,0.18,0.07,0.36,0,0.54c-0.16,0.12-0.33,0.17-0.53,0.17c-1.65,0-3.31,0-4.96,0
		c-0.06,0-0.13,0.01-0.19-0.01c-0.22-0.06-0.39-0.2-0.39-0.43c0-0.23,0.17-0.37,0.39-0.42c0.07-0.02,0.14-0.01,0.22-0.01
		c1.64,0,3.29,0,4.93,0C22.36,12.72,22.53,12.76,22.68,12.89z"/>
	<path class="st6" d="M22.68,14.63c0.07,0.18,0.07,0.36,0,0.54c-0.16,0.12-0.33,0.17-0.53,0.17c-1.65,0-3.31,0-4.96,0
		c-0.06,0-0.13,0.01-0.19-0.01c-0.22-0.06-0.39-0.2-0.39-0.43c0-0.23,0.17-0.37,0.39-0.42c0.07-0.02,0.14-0.01,0.22-0.01
		c1.64,0,3.29,0,4.93,0C22.36,14.46,22.53,14.5,22.68,14.63z"/>
	<path class="st6" d="M22.68,16.36c0.07,0.18,0.07,0.36,0,0.54c-0.16,0.12-0.33,0.17-0.53,0.17c-1.65,0-3.31,0-4.96,0
		c-0.06,0-0.13,0.01-0.19-0.01c-0.22-0.06-0.39-0.2-0.39-0.43c0-0.23,0.17-0.37,0.39-0.42c0.07-0.02,0.14-0.01,0.22-0.01
		c1.64,0,3.29,0,4.93,0C22.36,16.19,22.53,16.23,22.68,16.36z"/>
	<path class="st6" d="M11.86,15.33c-0.83,0-1.66,0-2.49,0c-0.31,0-0.56-0.19-0.57-0.42c-0.01-0.24,0.25-0.44,0.58-0.44
		c1.65,0,3.31,0,4.96,0c0.36,0,0.53,0.14,0.53,0.42c0,0.3-0.17,0.44-0.55,0.44C13.5,15.33,12.68,15.33,11.86,15.33z"/>
	<path class="st6" d="M11.86,16.2c0.82,0,1.64,0,2.47,0c0.38,0,0.55,0.14,0.55,0.44c0,0.29-0.17,0.42-0.53,0.42
		c-1.65,0-3.31,0-4.96,0c-0.33,0-0.59-0.2-0.58-0.44c0.01-0.23,0.26-0.42,0.57-0.42C10.2,16.2,11.03,16.2,11.86,16.2z"/>
	<path class="st6" d="M11.83,18.8c-0.82,0-1.64,0-2.47,0c-0.31,0-0.56-0.19-0.57-0.43c-0.01-0.23,0.25-0.44,0.55-0.44
		c1.67,0,3.34,0,5.01,0c0.33,0,0.5,0.15,0.51,0.43c0,0.29-0.17,0.44-0.52,0.44C13.51,18.8,12.67,18.8,11.83,18.8z"/>
	<path class="st6" d="M11.86,20.54c-0.83,0-1.66,0-2.49,0c-0.31,0-0.56-0.19-0.57-0.42c-0.01-0.24,0.25-0.44,0.58-0.44
		c1.65,0,3.31,0,4.96,0c0.36,0,0.53,0.14,0.53,0.42c0,0.3-0.17,0.44-0.55,0.44C13.5,20.54,12.68,20.54,11.86,20.54z"/>
	<path class="st6" d="M11.86,22.27c-0.83,0-1.66,0-2.49,0c-0.31,0-0.56-0.19-0.57-0.42c-0.01-0.24,0.25-0.44,0.58-0.44
		c1.65,0,3.31,0,4.96,0c0.36,0,0.53,0.14,0.53,0.42c0,0.3-0.17,0.44-0.55,0.44C13.5,22.27,12.68,22.27,11.86,22.27z"/>
	<path class="st6" d="M11.83,24.01c-0.81,0-1.63,0-2.44,0c-0.33,0-0.59-0.19-0.59-0.43c-0.01-0.24,0.25-0.44,0.58-0.44
		c1.65,0,3.31,0,4.96,0c0.36,0,0.53,0.14,0.53,0.43c0,0.3-0.17,0.44-0.55,0.44C13.49,24.01,12.66,24.01,11.83,24.01z"/>
	<path class="st6" d="M11.87,24.88c0.82,0,1.64,0,2.47,0c0.36,0,0.53,0.14,0.53,0.42c0,0.3-0.17,0.44-0.55,0.44
		c-1.64,0-3.29,0-4.93,0c-0.04,0-0.07,0-0.11,0c-0.25-0.01-0.48-0.22-0.49-0.42c-0.01-0.21,0.24-0.44,0.5-0.44
		c0.54-0.01,1.08,0,1.63,0C11.24,24.88,11.55,24.88,11.87,24.88z"/>
	<path class="st7" d="M5.7,3.61c0.07,0.27,0.05,0.55,0.05,0.83c0,7.2,0,14.4,0,21.6c0,0.22,0,0.44-0.27,0.53
		c-0.28,0.1-0.53-0.06-0.55-0.36c0-0.09,0-0.18,0-0.27c0-7.12,0-14.23,0-21.35c0-0.34,0.03-0.69-0.22-0.97
		C5.04,3.61,5.37,3.61,5.7,3.61z"/>
</g>
</svg>
