<?xml version="1.0" encoding="UTF-8"?> <svg xmlns="http://www.w3.org/2000/svg" id="Layer_1" data-name="Layer 1" width="500" height="500" viewBox="0 0 500 500"><defs><style> .cls-1 { fill: #fff; } .cls-2 { fill: #f1084c; } </style></defs><g><path class="cls-1" d="M68.221,382.737a47.471,47.471,0,0,1-5.04.469,14.135,14.135,0,0,1-12.73-9.186c-1.462-3.989.248-10.42,3.639-13.274,4.485-3.777,9.032-7.48,13.629-11.278-2.281-4.817-4.841-9.864-7.054-15.058a8.161,8.161,0,0,0-4.618-4.623c-44.867-19.751-64.952-73.683-44-118C27.84,178.4,61.013,158.781,97.989,161.083a7.445,7.445,0,0,0,6.808-2.694c39.64-43.819,88.953-61.956,147.048-52.01,48.737,8.345,85.274,35.7,109.93,78.666,1.626,2.834,3.028,3.7,6.072,1.467-21.885-50.294-59.015-83.427-111.9-99.852a9.728,9.728,0,0,1,1.737-.124,177.318,177.318,0,0,1,48.776,16.729c35.745,18.656,62.621,46.005,80.08,82.47,1.34,2.8,2.867,5.171,6.854,5.977C378.1,145.851,350.091,110.724,310.035,85c63.505,28.534,103.214,76.721,119.009,145.373C418.328,124.3,321.185,30.433,196.984,40.783,75.5,50.907-15.33,161.539,2.161,285.705,19.008,405.293,128,481.791,235.891,469.768c-1.364-.238-2.742-.138-4.1-.253-11.059-.939-22.249-1.136-33.147-3.022-41.008-7.1-76.629-25.246-106.1-54.7-8.906-8.9-16.259-19.356-24.314-29.077,1.069.971,2.19,1.891,3.2,2.921a192.656,192.656,0,0,0,72.409,46.718,189.106,189.106,0,0,0,87.475,10.065,60.942,60.942,0,0,0-6.121-.179,169.456,169.456,0,0,1-47.551-6.3q-52.548-14.62-88.314-55.883c-1.454-1.672-2.556-1.73-4.6-1.155C79.294,380.434,73.731,381.492,68.221,382.737ZM343.863,219.255l1.3.027c2.3-5.707,8.774-3.8,12.5-6.912-1.942,1.59-4,3.34-6.315,3.818-4.236.875-6,4.106-4.727,7.031,2.233,5.136,1.1,10.593,2.733,15.529,1.572,4.752,4.3,9.124,6.555,13.643.714,1.429,1.558,2.793,2.342,4.186a5.635,5.635,0,0,1-2.435-2.272c-3.273-4.988-7.352-6.742-13.141-4.853-7.787,2.54-15.036,6.331-20.038,13.03a24.774,24.774,0,0,1-12.589,9.184,55.851,55.851,0,0,0-7.4,2.913c-5.339,2.629-10.619,3.2-16.269.834a29.707,29.707,0,0,0-7.774-1.645,232.433,232.433,0,0,1-45.184-9.73c-8.341-2.785-16.577-6.242-21.142-16.2l-2.52,6.444c-5.577-3.751-12.12-4.522-18.817-4.573l-1.239,1.542,3.786,2.553-7.647.473c.11,4.107,2.949,4.141,5.915,4.365l-4.82,1.381c5.736,4.259,12.26.853,17.539,4.157l-11.747,1.2c2.628,4.215,6.547,2.65,9.823,3.172,3.4.542,6.76,1.312,10.085,1.971l-4.718-5.745a26.133,26.133,0,0,1,6.172,5.7,14.058,14.058,0,0,0,10.625,5.289,28.007,28.007,0,0,1,10.013,2.313,162.331,162.331,0,0,1,17.48,9.52A101.977,101.977,0,0,0,280.8,299.589c9.826,2.584,13.379,2.268,22.513-1.773-2.919-2.549-7.868-1.982-9.686-6.1,5.584,1.951,10.932,4.315,16.391,6.382,1.024.388,2.568-.228,3.75-.692,4.99-1.961,9.935-4.04,14.9-6.076a6.68,6.68,0,0,1-2.327,2.711,41.1,41.1,0,0,0-5.4,5.2c-4.593,6.03-8.744,12.41-13.542,18.263-1.654,2.019-4.665,3.988-7.125,4.077-7.209.261-14.451-.635-21.684-.709-10.835-.112-21.675-.009-32.508.224a47.249,47.249,0,0,0-8.552,1.465c-2.7.568-5.362,1.31-8.8,2.166,1.5.643,2.143.974,2.82,1.2,9.787,3.272,16.6,10,21.8,18.658,1.427,2.374,2.166,4.541-.191,6.845-.7.689-.892,1.908-1.316,2.884-.425-1.567.124-2.844.271-4.165.17-1.531.587-3.5-.139-4.592-5.98-8.95-13.812-15.459-24.725-17.453a9.523,9.523,0,0,0-3.486.162c-6,1.2-11.968,2.579-17.981,3.715-6.689,1.263-13.88,1.882-16.384,9.725-1.039,3.254-.762,6.93-1.029,9.821-3.761-6.38-1.475-13.178,7.445-20.254-.559-.289-1.076-.605-1.628-.834-9.9-4.1-20-3.254-29.846-.364-13.412,3.938-26.585,8.686-39.92,12.9-3.059.966-6.537,2.08-9.511,1.508-5.029-.969-8.348,1.12-11.658,4.109-2.645,2.39-4.188,4.936-1.721,8.431a13.6,13.6,0,0,1,1.225,3.263l-1.017.431c-1.111-2.744-3.445-5.708-3-8.173.488-2.721,3.522-4.985,5.1-7.006-2.3.456-5.1,1.108-7.927,1.549-5.124.8-10.316,1.234-15.394,2.25-10.048,2.01-18.7,6.424-24.3,15.5-2.376,3.846-1.825,7.875,1.2,11.128,3.515,3.776,8.109,1.639,12.156,2.448l-1.618-.618a56.883,56.883,0,0,0,6.763-1.047c4.936-1.4,10.139-2.379,14.628-4.7,6.612-3.421,13.121-6.5,20.745-6.2,4.634.185,9.178.224,12.948-3.231a6.051,6.051,0,0,1,3.039-1.066c10.536-1.676,21.085-2.419,31.743-.981,5.475.738,11.216,2.082,16.5,1.17a95.854,95.854,0,0,1,36.779.558c5.891,1.256,11.819,2.437,17.585,4.144,5.739,1.7,11.214,4.292,16.952,5.993,8.2,2.432,16.562,4.343,24.814,6.623,2.456.678,5.144,2.271,2.737,5.071-5.361,6.24-9.052,13.908-17.539,17.449-10.276,4.288-17.948,9.041-16.433,21.985a23.207,23.207,0,0,1-.827-7.09c.614-7.227,5.959-11.09,11.743-14.933a37.136,37.136,0,0,0-19.853-3.369,75.426,75.426,0,0,1-15.5.345c-4.25-.413-8.39-2.078-12.548-3.3-5.274-1.546-7.681-.348-9.259,4.868-.729,2.407-1.332,4.852-2.152,7.871-.866-7.854,2.4-13.906,7.556-15.243a32.151,32.151,0,0,0-8.063-.4c-8.862.81-17.718,1.695-26.556,2.73a105.976,105.976,0,0,0-11.7,2.079c-4.766,1.112-7.317,5.115-9.882,8.718-2.094,2.942.152,8.406,3.97,10.477,5.523,2.994,11.542,3.32,17.666,2.8l-3.883-.448c9.809-1,19.6-1.908,28.929-4.5,8.2-2.281,14.781-.728,21.357,3.97,5.693,4.068,11.558,7.916,17.515,11.589a34.764,34.764,0,0,0,25.766,4.473,32.193,32.193,0,0,1,7.5-.865c6.142.274,12.263,1.086,18.406,1.286a16.992,16.992,0,0,0,8-1.356c7.7-3.936,9.792-8.746,8.8-17.622a39.912,39.912,0,0,0-9.7-22.417c10.991,5.371,15.2,23.528,9.383,38.744a7.511,7.511,0,0,0,1.415-.517c8.554-5.648,17.156-11.229,25.594-17.045,1.71-1.179,2.734-3.32,4.19-4.911,1.186-1.3,2.343-2.921,3.864-3.547,4.19-1.726,6.471-4.732,7.7-8.965.624-2.149,1.395-4.659,2.953-6.044,2.709-2.409,2.482-4.761,1.091-7.394a42.1,42.1,0,0,0-3.727-5.767c-3.948-5.195-8.2-10.171-11.937-15.508-2.61-3.725-4.575-7.9-6.828-11.878l1.351-.885c5.695,14.184,17.178,23.984,26.62,36.279,4.667-2.507,10.074-4.739,14.734-8.03,19.554-13.808,37.685-29.19,50.42-49.887,3.907-6.349,8.514-9.66,16.034-6.712a4.316,4.316,0,0,0,1.058.243c6.352.751,11.682,3.261,15.419,9.156l13.818-7.513.752,1.006c-1.4,1.155-2.766,2.363-4.218,3.452-2.2,1.648-4.457,3.214-7.048,5.071,2.645,2.9,5.328,5.654,7.789,8.59,7.5,8.953,23.3,6.384,26.02-4.843.291-1.2,1.607-2.916,2.623-3.049,5.2-.681,8.52-3.583,11.711-7.567,3.566-4.451,3.9-5.507-.552-8.843-.376-.282-.573-.8-.951-1.079-2.573-1.875-5.14-3.765-7.794-5.522-.522-.346-1.45-.009-2.125-.21a4.748,4.748,0,0,1-2.107-1.1c-3.031-3.271-5.4-3.419-8.858-.449-1.485,1.277-3,2.52-4.879,4.1-1.285-2.878-2.133-5.121-3.262-7.213-1.293-2.4-3.2-3.838-6.571-2.864.749,2.468,1.451,4.782,2.317,7.634-1-.463-1.277-.5-1.378-.654-5.6-8.577-12.614-16.048-15.572-26.524-3.131-11.089-11.275-17.157-23.526-18.189-8.346-.7-16.827-3.192-19.992-12.911-.161-.5-.7-.864-1.216-1.464-.291,4.309-2.977,6.694-8.634,7.827,2.334-2.694,9.131-3.074,4.829-8.233a46.64,46.64,0,0,0,2.461-5.658c.683-2.43.811-5.02,1.526-7.438,3.373-11.4.51-22.271-2.788-33.056a15.57,15.57,0,0,0-3.863-6.022c-8.385-8.483-18.717-9.673-29.519-6.535-10.315,3-17.794,9.647-20.853,20.3C343.283,213.967,343.863,216.694,343.863,219.255ZM92.151,166.222a83.422,83.422,0,1,0,.376,166.843c45.364-.065,82.847-37.608,82.831-82.965C175.342,203.4,138.408,166.171,92.151,166.222Zm2.4,208.575A169.705,169.705,0,0,0,138,404.371l5.065-7.388c-.662-.437-1.386-.84-2.027-1.348-9.53-7.549-19.211-14.919-28.5-22.749-4.9-4.129-6.868-4.994-12.664-2.123C98.007,371.686,96.486,373.3,94.554,374.8Zm-32.84-41.782,9.524,15.132,19.243-4.083c-2.441-2.554-4.178-5.97-6.69-6.695C76.822,335.359,69.531,334.469,61.714,333.015Zm124.549,86.1,20.056,1.53.081-1.127C199.9,416.375,193.23,415.674,186.263,419.117Z"></path><path d="M343.863,219.255c0-2.561-.58-5.288.1-7.653,3.059-10.651,10.538-17.3,20.853-20.3,10.8-3.138,21.134-1.948,29.519,6.535a15.57,15.57,0,0,1,3.863,6.022c3.3,10.785,6.161,21.659,2.788,33.056-.715,2.418-.843,5.008-1.526,7.438A46.64,46.64,0,0,1,397,250.013c4.3,5.159-2.5,5.539-4.829,8.233,5.657-1.133,8.343-3.518,8.634-7.827.512.6,1.055.969,1.216,1.464,3.165,9.719,11.646,12.208,19.992,12.911,12.251,1.032,20.395,7.1,23.526,18.189,2.958,10.476,9.97,17.947,15.572,26.524.1.155.383.191,1.378.654-.866-2.852-1.568-5.166-2.317-7.634,3.368-.974,5.278.469,6.571,2.864,1.129,2.092,1.977,4.335,3.262,7.213,1.88-1.577,3.394-2.82,4.879-4.1,3.456-2.97,5.827-2.822,8.858.449a4.748,4.748,0,0,0,2.107,1.1c.675.2,1.6-.136,2.125.21,2.654,1.757,5.221,3.647,7.794,5.522.378.275.575.8.951,1.079,4.448,3.336,4.118,4.392.552,8.843-3.191,3.984-6.51,6.886-11.711,7.567-1.016.133-2.332,1.848-2.623,3.049-2.721,11.227-18.518,13.8-26.02,4.843-2.461-2.936-5.144-5.686-7.789-8.59,2.591-1.857,4.851-3.423,7.048-5.071,1.452-1.089,2.815-2.3,4.218-3.452l-.752-1.006-13.818,7.513c-3.737-5.9-9.067-8.405-15.419-9.156a4.316,4.316,0,0,1-1.058-.243c-7.52-2.948-12.127.363-16.034,6.712-12.735,20.7-30.866,36.079-50.42,49.887-4.66,3.291-10.067,5.523-14.734,8.03-9.442-12.295-20.925-22.095-26.62-36.279l-1.351.885c2.253,3.975,4.218,8.153,6.828,11.878,3.74,5.337,7.989,10.313,11.937,15.508a42.1,42.1,0,0,1,3.727,5.767c1.391,2.633,1.618,4.985-1.091,7.394-1.558,1.385-2.329,3.895-2.953,6.044-1.227,4.233-3.508,7.239-7.7,8.965-1.521.626-2.678,2.251-3.864,3.547-1.456,1.591-2.48,3.732-4.19,4.911-8.438,5.816-17.04,11.4-25.594,17.045a7.511,7.511,0,0,1-1.415.517c5.818-15.216,1.608-33.373-9.383-38.744a39.912,39.912,0,0,1,9.7,22.417c1,8.876-1.094,13.686-8.8,17.622a16.992,16.992,0,0,1-8,1.356c-6.143-.2-12.264-1.012-18.406-1.286a32.193,32.193,0,0,0-7.5.865,34.764,34.764,0,0,1-25.766-4.473c-5.957-3.673-11.822-7.521-17.515-11.589-6.576-4.7-13.157-6.251-21.357-3.97-9.326,2.6-19.12,3.5-28.929,4.5l3.883.448c-6.124.516-12.143.19-17.666-2.8-3.818-2.071-6.064-7.535-3.97-10.477,2.565-3.6,5.116-7.606,9.882-8.718a105.976,105.976,0,0,1,11.7-2.079c8.838-1.035,17.694-1.92,26.556-2.73a32.151,32.151,0,0,1,8.063.4c-5.159,1.337-8.422,7.389-7.556,15.243.82-3.019,1.423-5.464,2.152-7.871,1.578-5.216,3.985-6.414,9.259-4.868,4.158,1.219,8.3,2.884,12.548,3.3a75.426,75.426,0,0,0,15.5-.345,37.136,37.136,0,0,1,19.853,3.369c-5.784,3.843-11.129,7.706-11.743,14.933a23.207,23.207,0,0,0,.827,7.09c-1.515-12.944,6.157-17.7,16.433-21.985,8.487-3.541,12.178-11.209,17.539-17.449,2.407-2.8-.281-4.393-2.737-5.071-8.252-2.28-16.609-4.191-24.814-6.623-5.738-1.7-11.213-4.294-16.952-5.993-5.766-1.707-11.694-2.888-17.585-4.144a95.854,95.854,0,0,0-36.779-.558c-5.28.912-11.021-.432-16.5-1.17-10.658-1.438-21.207-.695-31.743.981a6.051,6.051,0,0,0-3.039,1.066c-3.77,3.455-8.314,3.416-12.948,3.231-7.624-.3-14.133,2.776-20.745,6.2-4.489,2.323-9.692,3.3-14.628,4.7a56.883,56.883,0,0,1-6.763,1.047l1.618.618c-4.047-.809-8.641,1.328-12.156-2.448-3.029-3.253-3.58-7.282-1.2-11.128,5.6-9.073,14.252-13.487,24.3-15.5,5.078-1.016,10.27-1.451,15.394-2.25,2.83-.441,5.626-1.093,7.927-1.549-1.578,2.021-4.612,4.285-5.1,7.006-.441,2.465,1.893,5.429,3,8.173l1.017-.431a13.6,13.6,0,0,0-1.225-3.263c-2.467-3.5-.924-6.041,1.721-8.431,3.31-2.989,6.629-5.078,11.658-4.109,2.974.572,6.452-.542,9.511-1.508,13.335-4.212,26.508-8.96,39.92-12.9,9.843-2.89,19.95-3.736,29.846.364.552.229,1.069.545,1.628.834-8.92,7.076-11.206,13.874-7.445,20.254.267-2.891-.01-6.567,1.029-9.821,2.5-7.843,9.695-8.462,16.384-9.725,6.013-1.136,11.98-2.512,17.981-3.715a9.523,9.523,0,0,1,3.486-.162c10.913,1.994,18.745,8.5,24.725,17.453.726,1.088.309,3.061.139,4.592-.147,1.321-.7,2.6-.271,4.165.424-.976.612-2.195,1.316-2.884,2.357-2.3,1.618-4.471.191-6.845-5.2-8.655-12.015-15.386-21.8-18.658-.677-.226-1.319-.557-2.82-1.2,3.44-.856,6.1-1.6,8.8-2.166a47.249,47.249,0,0,1,8.552-1.465c10.833-.233,21.673-.336,32.508-.224,7.233.074,14.475.97,21.684.709,2.46-.089,5.471-2.058,7.125-4.077,4.8-5.853,8.949-12.233,13.542-18.263a41.1,41.1,0,0,1,5.4-5.2,6.68,6.68,0,0,0,2.327-2.711c-4.961,2.036-9.906,4.115-14.9,6.076-1.182.464-2.726,1.08-3.75.692-5.459-2.067-10.807-4.431-16.391-6.382,1.818,4.119,6.767,3.552,9.686,6.1-9.134,4.041-12.687,4.357-22.513,1.773a101.977,101.977,0,0,1-28.584-11.978,162.331,162.331,0,0,0-17.48-9.52,28.007,28.007,0,0,0-10.013-2.313,14.058,14.058,0,0,1-10.625-5.289,26.133,26.133,0,0,0-6.172-5.7l4.718,5.745c-3.325-.659-6.687-1.429-10.085-1.971-3.276-.522-7.195,1.043-9.823-3.172l11.747-1.2c-5.279-3.3-11.8.1-17.539-4.157l4.82-1.381c-2.966-.224-5.8-.258-5.915-4.365l7.647-.473-3.786-2.553,1.239-1.542c6.7.051,13.24.822,18.817,4.573l2.52-6.444c4.565,9.953,12.8,13.41,21.142,16.2a232.433,232.433,0,0,0,45.184,9.73,29.707,29.707,0,0,1,7.774,1.645c5.65,2.366,10.93,1.8,16.269-.834a55.851,55.851,0,0,1,7.4-2.913,24.774,24.774,0,0,0,12.589-9.184c5-6.7,12.251-10.49,20.038-13.03,5.789-1.889,9.868-.135,13.141,4.853a5.635,5.635,0,0,0,2.435,2.272c-.784-1.393-1.628-2.757-2.342-4.186-2.258-4.519-4.983-8.891-6.555-13.643-1.634-4.936-.5-10.393-2.733-15.529-1.272-2.925.491-6.156,4.727-7.031,2.318-.478,4.373-2.228,6.315-3.818-3.731,3.109-10.2,1.2-12.5,6.912Z"></path><path d="M68.22,382.7c8.064,9.743,15.417,20.2,24.323,29.1,29.47,29.451,65.091,47.6,106.1,54.7,10.9,1.886,22.088,2.083,33.147,3.022,1.36.115,2.738.015,4.1.253C128,481.791,19.008,405.293,2.161,285.705-15.33,161.539,75.5,50.907,196.984,40.783c124.2-10.35,221.344,83.514,232.06,189.592C413.249,161.723,373.54,113.536,310.035,85c40.056,25.722,68.064,60.849,83.356,106.71-3.987-.806-5.514-3.179-6.854-5.977-17.459-36.465-44.335-63.814-80.08-82.47a177.318,177.318,0,0,0-48.776-16.729,9.728,9.728,0,0,0-1.737.124c52.888,16.425,90.018,49.558,111.9,99.852-3.044,2.228-4.446,1.367-6.072-1.467-24.656-42.971-61.193-70.321-109.93-78.666-58.095-9.946-107.408,8.191-147.048,52.01a7.445,7.445,0,0,1-6.808,2.694c-36.976-2.3-70.149,17.315-85.938,50.706-20.956,44.315-.871,98.247,44,118a8.161,8.161,0,0,1,4.618,4.623c2.213,5.194,4.773,10.241,7.054,15.058-4.6,3.8-9.144,7.5-13.629,11.278-3.391,2.854-5.1,9.285-3.639,13.274a14.135,14.135,0,0,0,12.73,9.186,47.471,47.471,0,0,0,5.04-.469Z"></path><path class="cls-2" d="M92.151,166.222c46.257-.051,83.191,37.181,83.207,83.878.016,45.357-37.467,82.9-82.831,82.965a83.422,83.422,0,1,1-.376-166.843ZM59.825,293.349c4.714-6.681,9.3-13.046,13.69-19.548a5.2,5.2,0,0,0,.5-3.92q-4.125-13.494-8.643-26.865a5.65,5.65,0,0,0-2.833-3.213q-10.17-3.747-20.546-6.911a4.429,4.429,0,0,0-3.827,1.086c-5.183,6.216-10.195,12.578-15.118,19a5.954,5.954,0,0,0-1.133,3.88A69.06,69.06,0,0,0,30.5,282.811a5.533,5.533,0,0,0,2.793,2.475C42.016,288.044,50.793,290.629,59.825,293.349Zm85.51-77.949.338,0c.189-3.86.518-7.721.489-11.579a6.078,6.078,0,0,0-1.5-3.775,65.492,65.492,0,0,0-21.61-15.5,7.621,7.621,0,0,0-5.064-.272c-7.517,2.582-14.918,5.5-22.393,8.205a3.051,3.051,0,0,0-2.317,3.43c.11,7.127-.058,14.259.127,21.383a5.494,5.494,0,0,0,1.945,3.777q11.511,8.469,23.3,16.55a5.024,5.024,0,0,0,3.844.6c6.767-2.161,13.438-4.622,20.186-6.845a3.317,3.317,0,0,0,2.671-3.648C145.283,223.611,145.335,219.505,145.335,215.4ZM126.5,293.319c8.785-2.5,17.375-4.878,25.909-7.443a5.464,5.464,0,0,0,2.776-2.5,67.855,67.855,0,0,0,8.226-26.436,5.009,5.009,0,0,0-1-3.219c-5.029-6.5-10.111-12.96-15.349-19.289a4.174,4.174,0,0,0-3.552-1.17c-7.042,2.106-14.027,4.415-20.964,6.845a4.629,4.629,0,0,0-2.465,2.612q-4.5,13.758-8.649,27.629a5.021,5.021,0,0,0,.665,3.841C116.712,280.536,121.515,286.748,126.5,293.319ZM92.069,208.443c0-5.209-.087-8.714.035-12.212.067-1.93-.445-3.043-2.419-3.747-7.595-2.711-15.1-5.669-22.7-8.356a6.039,6.039,0,0,0-4.074.2,67.675,67.675,0,0,0-22.2,15.874,5.44,5.44,0,0,0-1.422,3.452c.189,8.084.645,16.161.846,24.244a3.406,3.406,0,0,0,2.745,3.592c6.5,2.183,13.008,4.351,19.428,6.754a4.941,4.941,0,0,0,5.263-.891c4.549-3.378,8.943-7.082,13.867-9.809C89.845,222.886,95,217,92.069,208.443Zm.8,64.3v.136c-4.825,0-9.655-.111-14.473.076a5.157,5.157,0,0,0-3.562,1.653c-4.3,5.819-8.469,11.74-12.449,17.781a4.537,4.537,0,0,0-.008,4.029c4.336,6.816,8.879,13.5,13.456,20.159A4.994,4.994,0,0,0,78.57,318.6a68.955,68.955,0,0,0,28-.1,5.559,5.559,0,0,0,3.094-2.14c4.639-6.762,9.2-13.582,13.6-20.5a4.084,4.084,0,0,0-.07-3.654q-6.13-8.959-12.695-17.615a5.2,5.2,0,0,0-3.507-1.77C102.289,272.62,97.579,272.741,92.874,272.741Zm28.975,51.312c-7.092-2.6-13.229-4.619-20.322-3.2a44.708,44.708,0,0,1-15.767.173c-7.246-1.2-13.666.552-20.657,3.279C84.156,331.506,102.663,330.97,121.849,324.053Zm51.219-77.887-.967-.536c-2.487,4.129-6.329,8-7.177,12.442a97.549,97.549,0,0,1-8.486,25.968c-2.362,4.688-1.034,9.659-1.286,15.5C168.116,283.235,173.446,265.626,173.068,246.166Zm-13.027-41.148c-11.339-17.231-26.394-27.826-45.52-32.994,2.918,4.026,5.605,8.709,9.645,11.14,6.735,4.054,13.659,7.742,18.981,13.6C147.576,201.633,153.461,202.932,160.041,205.018Zm-130.014,93.5c.15-6.21.9-12.19-2.174-18.259a71.261,71.261,0,0,1-6.4-19.452c-1.1-6.155-4.962-10.082-8.494-15.57C11.707,265.892,18.06,283.087,30.027,298.515ZM25.653,204.4c8.625-1.576,12.1-3.824,17.818-8.731A143.557,143.557,0,0,1,59.61,184.259a30.964,30.964,0,0,0,11.381-12.787C51.887,176.683,37.193,187.843,25.653,204.4Z"></path><path d="M68.221,382.737c5.51-1.245,11.073-2.3,16.5-3.829,2.046-.575,3.148-.517,4.6,1.155q35.8,41.147,88.314,55.883a169.456,169.456,0,0,0,47.551,6.3,60.942,60.942,0,0,1,6.121.179,189.106,189.106,0,0,1-87.475-10.065A192.656,192.656,0,0,1,71.429,385.64c-1.01-1.03-2.131-1.95-3.2-2.932C68.22,382.7,68.221,382.737,68.221,382.737Z"></path><path d="M94.554,374.8c1.932-1.5,3.453-3.111,5.317-4.034,5.8-2.871,7.764-2.006,12.664,2.123,9.294,7.83,18.975,15.2,28.5,22.749.641.508,1.365.911,2.027,1.348L138,404.371A169.705,169.705,0,0,1,94.554,374.8Z"></path><path d="M61.714,333.015c7.817,1.454,15.108,2.344,22.077,4.354,2.512.725,4.249,4.141,6.69,6.695l-19.243,4.083Z"></path><path d="M186.263,419.117c6.967-3.443,13.639-2.742,20.137.4l-.081,1.127Z"></path><path class="cls-1" d="M59.825,293.349c-9.032-2.72-17.809-5.305-26.532-8.063a5.533,5.533,0,0,1-2.793-2.475,69.06,69.06,0,0,1-8.587-25.949,5.954,5.954,0,0,1,1.133-3.88c4.923-6.426,9.935-12.788,15.118-19a4.429,4.429,0,0,1,3.827-1.086q10.364,3.165,20.546,6.911a5.65,5.65,0,0,1,2.833,3.213q4.528,13.364,8.643,26.865a5.2,5.2,0,0,1-.5,3.92C69.127,280.3,64.539,286.668,59.825,293.349Z"></path><path class="cls-1" d="M145.335,215.4c0,4.1-.052,8.211.023,12.314a3.317,3.317,0,0,1-2.671,3.648c-6.748,2.223-13.419,4.684-20.186,6.845a5.024,5.024,0,0,1-3.844-.6q-11.773-8.1-23.3-16.55a5.494,5.494,0,0,1-1.945-3.777c-.185-7.124-.017-14.256-.127-21.383a3.051,3.051,0,0,1,2.317-3.43c7.475-2.707,14.876-5.623,22.393-8.205a7.621,7.621,0,0,1,5.064.272,65.492,65.492,0,0,1,21.61,15.5,6.078,6.078,0,0,1,1.5,3.775c.029,3.858-.3,7.719-.489,11.579Z"></path><path class="cls-1" d="M126.5,293.319c-4.98-6.571-9.783-12.783-14.4-19.132a5.021,5.021,0,0,1-.665-3.841q4.125-13.875,8.649-27.629a4.629,4.629,0,0,1,2.465-2.612c6.937-2.43,13.922-4.739,20.964-6.845a4.174,4.174,0,0,1,3.552,1.17c5.238,6.329,10.32,12.79,15.349,19.289a5.009,5.009,0,0,1,1,3.219,67.855,67.855,0,0,1-8.226,26.436,5.464,5.464,0,0,1-2.776,2.5C143.87,288.441,135.28,290.821,126.5,293.319Z"></path><path class="cls-1" d="M92.069,208.443C95,217,89.845,222.886,81.433,227.546c-4.924,2.727-9.318,6.431-13.867,9.809a4.941,4.941,0,0,1-5.263.891c-6.42-2.4-12.928-4.571-19.428-6.754A3.406,3.406,0,0,1,40.13,227.9c-.2-8.083-.657-16.16-.846-24.244a5.44,5.44,0,0,1,1.422-3.452,67.675,67.675,0,0,1,22.2-15.874,6.039,6.039,0,0,1,4.074-.2c7.6,2.687,15.109,5.645,22.7,8.356,1.974.7,2.486,1.817,2.419,3.747C91.982,199.729,92.069,203.234,92.069,208.443Z"></path><path class="cls-1" d="M92.874,272.741c4.7,0,9.415-.121,14.111.082a5.2,5.2,0,0,1,3.507,1.77q6.552,8.655,12.695,17.615a4.084,4.084,0,0,1,.07,3.654c-4.4,6.921-8.957,13.741-13.6,20.5a5.559,5.559,0,0,1-3.094,2.14,68.955,68.955,0,0,1-28,.1,4.994,4.994,0,0,1-2.732-2.029c-4.577-6.658-9.12-13.343-13.456-20.159a4.537,4.537,0,0,1,.008-4.029c3.98-6.041,8.15-11.962,12.449-17.781a5.157,5.157,0,0,1,3.562-1.653c4.818-.187,9.648-.076,14.473-.076Z"></path><path class="cls-1" d="M121.849,324.053c-19.186,6.917-37.693,7.453-56.746.251,6.991-2.727,13.411-4.48,20.657-3.279a44.708,44.708,0,0,0,15.767-.173C108.62,319.434,114.757,321.451,121.849,324.053Z"></path><path class="cls-1" d="M173.068,246.166c.378,19.46-4.952,37.069-17.916,53.377.252-5.844-1.076-10.815,1.286-15.5a97.549,97.549,0,0,0,8.486-25.968c.848-4.442,4.69-8.313,7.177-12.442Z"></path><path class="cls-1" d="M160.041,205.018c-6.58-2.086-12.465-3.385-16.894-8.257-5.322-5.855-12.246-9.543-18.981-13.6-4.04-2.431-6.727-7.114-9.645-11.14C133.647,177.192,148.7,187.787,160.041,205.018Z"></path><path class="cls-1" d="M30.027,298.515c-11.967-15.428-18.32-32.623-17.071-53.281,3.532,5.488,7.4,9.415,8.494,15.57a71.261,71.261,0,0,0,6.4,19.452C30.924,286.325,30.177,292.305,30.027,298.515Z"></path><path class="cls-1" d="M25.653,204.4c11.54-16.559,26.234-27.719,45.338-32.93A30.964,30.964,0,0,1,59.61,184.259a143.557,143.557,0,0,0-16.139,11.412C37.751,200.578,34.278,202.826,25.653,204.4Z"></path></g></svg> 